<svg xmlns="http://www.w3.org/2000/svg" version="1.1" xmlns:xlink="http://www.w3.org/1999/xlink" xmlns:svgjs="http://svgjs.dev/svgjs" width="650" height="400"><g class="background"><rect fill="#eeeeee" width="100%" height="100%" stroke-width="2" stroke="#555555"></rect></g><g class="plot-container"><rect width="22.5" height="176.47058823529412" x="60" y="183.52941176470588" fill="#ffffff" stroke-width="1" stroke="#4443"></rect><rect width="22.5" height="178.23529411764707" x="86.5" y="181.76470588235293" fill="#8080ff" stroke-width="1" stroke="#4443"></rect><rect width="22.5" height="247.05882352941174" x="113" y="112.94117647058826" fill="#5555ff" stroke-width="1" stroke="#4443"></rect><rect width="22.5" height="123.52941176470587" x="139.5" y="236.47058823529414" fill="#4040ff" stroke-width="1" stroke="#4443"></rect><rect width="22.5" height="185.29411764705884" x="176" y="174.70588235294116" fill="#ffffff" stroke-width="1" stroke="#4443"></rect><rect width="22.5" height="247.05882352941174" x="202.5" y="112.94117647058826" fill="#8080ff" stroke-width="1" stroke="#4443"></rect><rect width="22.5" height="254.11764705882354" x="229" y="105.88235294117646" fill="#5555ff" stroke-width="1" stroke="#4443"></rect><rect width="22.5" height="268.2352941176471" x="255.5" y="91.76470588235293" fill="#4040ff" stroke-width="1" stroke="#4443"></rect><rect width="22.5" height="211.76470588235296" x="292" y="148.23529411764704" fill="#ffffff" stroke-width="1" stroke="#4443"></rect><rect width="22.5" height="141.1764705882353" x="318.5" y="218.8235294117647" fill="#8080ff" stroke-width="1" stroke="#4443"></rect><rect width="22.5" height="282.3529411764706" x="345" y="77.64705882352939" fill="#5555ff" stroke-width="1" stroke="#4443"></rect><rect width="22.5" height="254.11764705882354" x="371.5" y="105.88235294117646" fill="#4040ff" stroke-width="1" stroke="#4443"></rect><rect width="22.5" height="158.8235294117647" x="408" y="201.1764705882353" fill="#ffffff" stroke-width="1" stroke="#4443"></rect><rect width="22.5" height="139.41176470588235" x="434.5" y="220.58823529411768" fill="#8080ff" stroke-width="1" stroke="#4443"></rect><rect width="22.5" height="285.88235294117646" x="461" y="74.11764705882354" fill="#5555ff" stroke-width="1" stroke="#4443"></rect><rect width="22.5" height="300" x="487.5" y="60" fill="#4040ff" stroke-width="1" stroke="#4443"></rect><rect width="22.5" height="208.23529411764704" x="524" y="151.76470588235296" fill="#ffffff" stroke-width="1" stroke="#4443"></rect><rect width="22.5" height="174.7058823529412" x="550.5" y="185.2941176470588" fill="#8080ff" stroke-width="1" stroke="#4443"></rect><rect width="22.5" height="241.76470588235296" x="577" y="118.23529411764704" fill="#5555ff" stroke-width="1" stroke="#4443"></rect><rect width="22.5" height="35.294117647058826" x="603.5" y="324.70588235294116" fill="#4040ff" stroke-width="1" stroke="#4443"></rect><path d="M111 156.895 L111 156.895 L221 80 L331 101.885 L441 103.66 L551 178.78" stroke-width="1" stroke="#000000" fill="none"></path></g><g class="labels"></g></svg>