<svg xmlns="http://www.w3.org/2000/svg" version="1.1" xmlns:xlink="http://www.w3.org/1999/xlink" xmlns:svgjs="http://svgjs.dev/svgjs" width="500" height="500"><g class="background"><rect fill="#eeeeee" width="100%" height="100%" stroke-width="2" stroke="#555555"></rect></g><g class="pie-chart"><path d="M250,200 L250,20 A180,180 0 0,1 405.885,290 Z" stroke-linejoin="round" stroke-linecap="round" stroke-width="1" stroke="#4443" fill="#00ffff"></path><path d="M250,200 L405.885,290 A180,180 0 0,1 196.944,372.003 Z" stroke-linejoin="round" stroke-linecap="round" stroke-width="1" stroke="#4443" fill="#3333ff"></path><path d="M250,200 L196.944,372.003 A180,180 0 0,1 70.503,213.451 Z" stroke-linejoin="round" stroke-linecap="round" stroke-width="1" stroke="#4443" fill="#6666ff"></path><path d="M250,200 L70.503,213.451 A180,180 0 0,1 127.569,68.051 Z" stroke-linejoin="round" stroke-linecap="round" stroke-width="1" stroke="#4443" fill="#9999ff"></path><path d="M250,200 L127.569,68.051 A180,180 0 0,1 250,20 Z" stroke-linejoin="round" stroke-linecap="round" stroke-width="1" stroke="#4443" fill="#ccccff"></path></g><g class="chart-legend"><rect width="498" height="99" class="background-content" fill="#ffffff" x="1" y="400"></rect><g><circle r="6" cx="16" cy="416" fill="#00ffff" stroke-width="1" stroke="#4443"></circle><text color="#000000" font-family="Arial" font-size="12" x="26" y="420.326171875" svgjs:data="{&quot;leading&quot;:&quot;1.3&quot;}"><tspan>Sales</tspan></text></g><g><circle r="6" cx="16" cy="438.5" fill="#3333ff" stroke-width="1" stroke="#4443"></circle><text color="#000000" font-family="Arial" font-size="12" x="26" y="442.826171875" svgjs:data="{&quot;leading&quot;:&quot;1.3&quot;}"><tspan>Ads</tspan></text></g><g><circle r="6" cx="16" cy="461" fill="#6666ff" stroke-width="1" stroke="#4443"></circle><text color="#000000" font-family="Arial" font-size="12" x="26" y="465.326171875" svgjs:data="{&quot;leading&quot;:&quot;1.3&quot;}"><tspan>Promotions</tspan></text></g><g><circle r="6" cx="16" cy="483.5" fill="#9999ff" stroke-width="1" stroke="#4443"></circle><text color="#000000" font-family="Arial" font-size="12" x="26" y="487.826171875" svgjs:data="{&quot;leading&quot;:&quot;1.3&quot;}"><tspan>Contracts</tspan></text></g><g><circle r="6" cx="256" cy="416" fill="#ccccff" stroke-width="1" stroke="#4443"></circle><text color="#000000" font-family="Arial" font-size="12" x="266" y="420.326171875" svgjs:data="{&quot;leading&quot;:&quot;1.3&quot;}"><tspan>Unkown</tspan></text></g></g></svg>