<svg xmlns="http://www.w3.org/2000/svg" version="1.1" xmlns:xlink="http://www.w3.org/1999/xlink" xmlns:svgjs="http://svgjs.dev/svgjs" width="800" height="450"><g class="background"><rect fill="#eeeeee" width="100%" height="100%" stroke-width="2" stroke="#555555"></rect><rect width="100%" height="100%" fill="url(#SvgjsPattern1000)"></rect></g><defs><pattern x="0" y="0" width="66.66666666666667" height="37.5" patternUnits="userSpaceOnUse" id="SvgjsPattern1000"><path d="M66.66666666666667 0 L0 0 0 37.5" fill="none" stroke-width="0.5" stroke="#000000"></path></pattern></defs><g class="scatter-plot" transform="matrix(0.8955223880597015,0,0,0.8920704845814978,40,22.5)"><circle r="2" cx="2" cy="452" fill="red"></circle><circle r="2" cx="28.278802461741144" cy="437.4489588187347" fill="red"></circle><circle r="2" cx="38.114384329758025" cy="435.45772009770945" fill="red"></circle><circle r="2" cx="76.69458300039263" cy="420.5782570710651" fill="red"></circle><circle r="2" cx="76.8819247224677" cy="409.5043493998129" fill="red"></circle><circle r="2" cx="85.42712188893648" cy="407.04595769700813" fill="red"></circle><circle r="2" cx="85.39676843852818" cy="406.05273361368654" fill="red"></circle><circle r="2" cx="115.34618470237706" cy="398.97255152369434" fill="red"></circle><circle r="2" cx="130.07589805968593" cy="392.67933785007983" fill="red"></circle><circle r="2" cx="126.2312759096584" cy="389.23731111165665" fill="red"></circle><circle r="2" cx="109.78515871801464" cy="387.8274547255297" fill="red"></circle><circle r="2" cx="112.54108964162748" cy="384.7853439844386" fill="red"></circle><circle r="2" cx="132.37386756141166" cy="373.5396321298618" fill="red"></circle><circle r="2" cx="135.74082765325412" cy="373.0987617486866" fill="red"></circle><circle r="2" cx="166.50006033788665" cy="369.7952556120072" fill="red"></circle><circle r="2" cx="128.79438547514985" cy="367.74693403682494" fill="red"></circle><circle r="2" cx="158.47992601699778" cy="366.079675574697" fill="red"></circle><circle r="2" cx="175.46138917984317" cy="359.7737423857174" fill="red"></circle><circle r="2" cx="175.18954100086452" cy="359.03679438532794" fill="red"></circle><circle r="2" cx="191.59087016567042" cy="356.0662414225633" fill="red"></circle><circle r="2" cx="198.15549103360553" cy="351.72571095964184" fill="red"></circle><circle r="2" cx="199.48294191746447" cy="351.26326211466824" fill="red"></circle><circle r="2" cx="175.4122382477146" cy="349.7005010135134" fill="red"></circle><circle r="2" cx="190.98556648621016" cy="346.03858821411796" fill="red"></circle><circle r="2" cx="189.84645318136563" cy="342.5036874599083" fill="red"></circle><circle r="2" cx="242.0548566056277" cy="332.4942707907488" fill="red"></circle><circle r="2" cx="233.0346302016528" cy="329.2311034889448" fill="red"></circle><circle r="2" cx="224.60157382711827" cy="325.64607900418355" fill="red"></circle><circle r="2" cx="254.43083342191235" cy="324.35298146207015" fill="red"></circle><circle r="2" cx="206.26528372756172" cy="319.3091438141823" fill="red"></circle><circle r="2" cx="244.93711469805513" cy="313.1918086884654" fill="red"></circle><circle r="2" cx="264.53256610490314" cy="311.3860466546817" fill="red"></circle><circle r="2" cx="280.4416960686105" cy="306.2201627683631" fill="red"></circle><circle r="2" cx="257.902670665701" cy="304.6074453467024" fill="red"></circle><circle r="2" cx="271.33250437525993" cy="303.3835060764899" fill="red"></circle><circle r="2" cx="264.04771667529474" cy="301.02020578080777" fill="red"></circle><circle r="2" cx="297.7401468211235" cy="299.39614177000635" fill="red"></circle><circle r="2" cx="279.44748890738674" cy="298.79159372270595" fill="red"></circle><circle r="2" cx="270.5815726027139" cy="297.3736766537497" fill="red"></circle><circle r="2" cx="268.02346645010647" cy="297.25962519986666" fill="red"></circle><circle r="2" cx="292.39659276998896" cy="291.7901536257285" fill="red"></circle><circle r="2" cx="295.4100677287206" cy="291.3092304994993" fill="red"></circle><circle r="2" cx="320.2425806474588" cy="290.38678983422017" fill="red"></circle><circle r="2" cx="334.7689454940937" cy="289.2175093817088" fill="red"></circle><circle r="2" cx="318.0168928595128" cy="287.95292345017066" fill="red"></circle><circle r="2" cx="304.42750041453036" cy="284.73968706271813" fill="red"></circle><circle r="2" cx="316.00159785947574" cy="284.3222404449052" fill="red"></circle><circle r="2" cx="315.08965908263536" cy="282.61149959700526" fill="red"></circle><circle r="2" cx="323.28725367337324" cy="281.8193834561777" fill="red"></circle><circle r="2" cx="323.14896213439215" cy="273.0288086573814" fill="red"></circle><circle r="2" cx="326.3511882366073" cy="271.3479674659363" fill="red"></circle><circle r="2" cx="347.82584453349205" cy="271.20720246817035" fill="red"></circle><circle r="2" cx="338.93248928181936" cy="269.59881747500515" fill="red"></circle><circle r="2" cx="342.8905207462048" cy="268.2599176721663" fill="red"></circle><circle r="2" cx="339.6420219556259" cy="254.4333588170463" fill="red"></circle><circle r="2" cx="314.45978187660546" cy="250.64786335610438" fill="red"></circle><circle r="2" cx="397.80811424606935" cy="242.3328881704294" fill="red"></circle><circle r="2" cx="381.7076373688353" cy="241.40724043650604" fill="red"></circle><circle r="2" cx="435.16300072148897" cy="239.69929422424275" fill="red"></circle><circle r="2" cx="415.99136850026787" cy="239.12802235882572" fill="red"></circle><circle r="2" cx="415.15356910884805" cy="237.46496394363567" fill="red"></circle><circle r="2" cx="412.1488304121689" cy="237.3613155647901" fill="red"></circle><circle r="2" cx="408.01097838545576" cy="235.21871901666245" fill="red"></circle><circle r="2" cx="397.0909574000187" cy="234.88236356566154" fill="red"></circle><circle r="2" cx="375.5108766424342" cy="234.85953562573232" fill="red"></circle><circle r="2" cx="402.8549213377477" cy="232.82188714761537" fill="red"></circle><circle r="2" cx="419.4054829594588" cy="222.78724847547716" fill="red"></circle><circle r="2" cx="414.374003064212" cy="221.13823267448305" fill="red"></circle><circle r="2" cx="452.09348644981657" cy="220.69505130940112" fill="red"></circle><circle r="2" cx="428.06387919654867" cy="220.52784025259203" fill="red"></circle><circle r="2" cx="426.0988771017711" cy="220.2924908521817" fill="red"></circle><circle r="2" cx="439.22419972408323" cy="210.8770437440173" fill="red"></circle><circle r="2" cx="460.5410042134446" cy="210.01670565572016" fill="red"></circle><circle r="2" cx="442.618168223185" cy="207.5786804689978" fill="red"></circle><circle r="2" cx="442.9775291313478" cy="207.45842982361538" fill="red"></circle><circle r="2" cx="469.8853619058733" cy="200.1438404267093" fill="red"></circle><circle r="2" cx="464.29928797649967" cy="193.6219608091164" fill="red"></circle><circle r="2" cx="496.7074676139944" cy="191.15908856102558" fill="red"></circle><circle r="2" cx="484.7375578711349" cy="189.71064268287552" fill="red"></circle><circle r="2" cx="496.5509520305191" cy="185.6064264315108" fill="red"></circle><circle r="2" cx="504.14917103544997" cy="185.56502522916128" fill="red"></circle><circle r="2" cx="453.61102588647134" cy="183.97931068518756" fill="red"></circle><circle r="2" cx="477.568028423946" cy="182.41678253735228" fill="red"></circle><circle r="2" cx="478.23881886603664" cy="180.79185023018093" fill="red"></circle><circle r="2" cx="488.55573422871834" cy="180.1723969362583" fill="red"></circle><circle r="2" cx="526.0443662374417" cy="178.28136536883622" fill="red"></circle><circle r="2" cx="493.28523731926333" cy="175.1966153572376" fill="red"></circle><circle r="2" cx="518.8783767476851" cy="173.346321641749" fill="red"></circle><circle r="2" cx="519.7146842873624" cy="163.82520717154227" fill="red"></circle><circle r="2" cx="507.7115358771929" cy="156.90275286803512" fill="red"></circle><circle r="2" cx="518.1812350500405" cy="155.59599845937433" fill="red"></circle><circle r="2" cx="550.9460229102995" cy="154.80163054374106" fill="red"></circle><circle r="2" cx="562.5699721637876" cy="144.00373868603342" fill="red"></circle><circle r="2" cx="591.9050957098381" cy="130.81253043564945" fill="red"></circle><circle r="2" cx="617.0183001277579" cy="121.94730212338375" fill="red"></circle><circle r="2" cx="616.0549421356908" cy="108.54513641216641" fill="red"></circle><circle r="2" cx="679.5629882492179" cy="94.02699856098262" fill="red"></circle><circle r="2" cx="615.9021664901346" cy="90.9401118643298" fill="red"></circle><circle r="2" cx="694.7663433734876" cy="81.46532126339638" fill="red"></circle><circle r="2" cx="802" cy="2" fill="red"></circle></g><g><text color="#000000" font-family="Arial" font-size="12" x="782" y="438" svgjs:data="{&quot;leading&quot;:&quot;1.3&quot;}"><tspan>x</tspan></text><text color="#000000" font-family="Arial" font-size="12" x="12" y="18" svgjs:data="{&quot;leading&quot;:&quot;1.3&quot;}"><tspan>y</tspan></text><text color="#000000" font-family="Arial" font-size="12" x="391" y="438" svgjs:data="{&quot;leading&quot;:&quot;1.3&quot;}"><tspan>0.07971</tspan></text><text color="#000000" font-family="Arial" font-size="12" x="12" y="216" svgjs:data="{&quot;leading&quot;:&quot;1.3&quot;}"><tspan>10.44122</tspan></text></g></svg>