<svg xmlns="http://www.w3.org/2000/svg" version="1.1" xmlns:xlink="http://www.w3.org/1999/xlink" xmlns:svgjs="http://svgjs.dev/svgjs" width="800" height="450"><g class="background"><rect fill="#eeeeee" width="100%" height="100%" stroke-width="2" stroke="#555555"></rect><rect width="100%" height="100%" fill="url(#SvgjsPattern1000)"></rect></g><defs><pattern x="0" y="0" width="66.66666666666667" height="37.5" patternUnits="userSpaceOnUse" id="SvgjsPattern1000"><path d="M66.66666666666667 0 L0 0 0 37.5" fill="none" stroke-width="0.5" stroke="#000000"></path></pattern></defs><g class="scatter-plot" transform="matrix(0.9148827753787504,0,0,0.910242868891147,41.4481784927562,22.49999999999997)"><circle r="2" cx="610.6326529777559" cy="442.93619652672356" fill="red"></circle><circle r="2" cx="246.14941464591323" cy="432.52412409491683" fill="red"></circle><circle r="2" cx="135.5068502967986" cy="431.08952937980166" fill="red"></circle><circle r="2" cx="248.40070082164652" cy="430.8470677399613" fill="red"></circle><circle r="2" cx="163.4412882001222" cy="429.33776163194756" fill="red"></circle><circle r="2" cx="214.3324583745446" cy="426.22483584105214" fill="red"></circle><circle r="2" cx="544.266692742361" cy="422.39162720559415" fill="red"></circle><circle r="2" cx="358.38584869708114" cy="407.9838017970388" fill="red"></circle><circle r="2" cx="350.6314125354567" cy="388.3920979262429" fill="red"></circle><circle r="2" cx="797.0004920535201" cy="387.7170882031023" fill="red"></circle><circle r="2" cx="522.8151623735821" cy="379.75548574319356" fill="red"></circle><circle r="2" cx="638.8950318874953" cy="365.27995455212704" fill="red"></circle><circle r="2" cx="732.1498806815732" cy="348.20173914096273" fill="red"></circle><circle r="2" cx="459.41007145615265" cy="326.52727365315064" fill="red"></circle><circle r="2" cx="489.9534258054289" cy="284.97895642293304" fill="red"></circle><circle r="2" cx="134.89071098683922" cy="282.9208355413944" fill="red"></circle><circle r="2" cx="144.86768008257008" cy="279.3893548962597" fill="red"></circle><circle r="2" cx="802" cy="246.12540990560979" fill="red"></circle><circle r="2" cx="300.8567849109655" cy="241.49732319901455" fill="red"></circle><circle r="2" cx="19.013929897271552" cy="218.770633035992" fill="red"></circle><circle r="2" cx="451.3566817042105" cy="204.8011054523776" fill="red"></circle><circle r="2" cx="482.06264718546043" cy="144.3312659926761" fill="red"></circle><circle r="2" cx="289.24557726360905" cy="119.83538922929883" fill="red"></circle><circle r="2" cx="422.68362394539076" cy="72.58223317081386" fill="red"></circle><circle r="2" cx="225.52582522335862" cy="69.82438525867701" fill="red"></circle><circle r="2" cx="338.25535469406714" cy="68.67993801277727" fill="red"></circle><circle r="2" cx="68.14676087369199" cy="58.6300457522875" fill="red"></circle><circle r="2" cx="332.7662490431733" cy="48.66840518489854" fill="red"></circle><circle r="2" cx="301.84341220754163" cy="24.71492622074184" fill="red"></circle><circle r="2" cx="608.9156253007656" cy="2" fill="red"></circle></g><g><text color="#000000" font-family="Arial" font-size="12" x="782" y="438" svgjs:data="{&quot;leading&quot;:&quot;1.3&quot;}"><tspan>x</tspan></text><text color="#000000" font-family="Arial" font-size="12" x="12" y="18" svgjs:data="{&quot;leading&quot;:&quot;1.3&quot;}"><tspan>y</tspan></text><text color="#000000" font-family="Arial" font-size="12" x="391" y="438" svgjs:data="{&quot;leading&quot;:&quot;1.3&quot;}"><tspan>0.15341</tspan></text><text color="#000000" font-family="Arial" font-size="12" x="12" y="216" svgjs:data="{&quot;leading&quot;:&quot;1.3&quot;}"><tspan>0.32165</tspan></text></g></svg>