<svg xmlns="http://www.w3.org/2000/svg" version="1.1" xmlns:xlink="http://www.w3.org/1999/xlink" xmlns:svgjs="http://svgjs.dev/svgjs" width="500" height="400"><g class="background"><rect fill="#eeeeee" width="100%" height="100%" stroke-width="2" stroke="#555555"></rect></g><g class="plot-container"><rect width="72" height="59.14972273567468" x="60" y="300.8502772643253" fill="#ffffff" stroke-width="1" stroke="#222222"></rect><rect width="72" height="59.741219963031426" x="60" y="241.1090573012939" fill="#8080ff" stroke-width="1" stroke="#222222"></rect><rect width="72" height="82.80961182994454" x="60" y="158.29944547134934" fill="#5555ff" stroke-width="1" stroke="#222222"></rect><rect width="72" height="41.40480591497227" x="60" y="116.89463955637706" fill="#4040ff" stroke-width="1" stroke="#222222"></rect><rect width="72" height="62.10720887245841" x="147" y="297.8927911275416" fill="#ffffff" stroke-width="1" stroke="#222222"></rect><rect width="72" height="82.80961182994454" x="147" y="215.08317929759704" fill="#8080ff" stroke-width="1" stroke="#222222"></rect><rect width="72" height="85.17560073937153" x="147" y="129.9075785582255" fill="#5555ff" stroke-width="1" stroke="#222222"></rect><rect width="72" height="89.90757855822551" x="147" y="40" fill="#4040ff" stroke-width="1" stroke="#222222"></rect><rect width="72" height="70.97966728280961" x="234" y="289.0203327171904" fill="#ffffff" stroke-width="1" stroke="#222222"></rect><rect width="72" height="47.31977818853974" x="234" y="241.70055452865063" fill="#8080ff" stroke-width="1" stroke="#222222"></rect><rect width="72" height="94.63955637707949" x="234" y="147.06099815157114" fill="#5555ff" stroke-width="1" stroke="#222222"></rect><rect width="72" height="85.17560073937153" x="234" y="61.88539741219961" fill="#4040ff" stroke-width="1" stroke="#222222"></rect><rect width="72" height="53.23475046210721" x="321" y="306.76524953789277" fill="#ffffff" stroke-width="1" stroke="#222222"></rect><rect width="72" height="46.72828096118299" x="321" y="260.0369685767098" fill="#8080ff" stroke-width="1" stroke="#222222"></rect><rect width="72" height="95.82255083179298" x="321" y="164.21441774491683" fill="#5555ff" stroke-width="1" stroke="#222222"></rect><rect width="72" height="100.55452865064694" x="321" y="63.659889094269886" fill="#4040ff" stroke-width="1" stroke="#222222"></rect><rect width="72" height="69.79667282809612" x="408" y="290.2033271719039" fill="#ffffff" stroke-width="1" stroke="#222222"></rect><rect width="72" height="58.55822550831793" x="408" y="231.64510166358593" fill="#8080ff" stroke-width="1" stroke="#222222"></rect><rect width="72" height="81.0351201478743" x="408" y="150.60998151571164" fill="#5555ff" stroke-width="1" stroke="#222222"></rect><rect width="72" height="11.829944547134936" x="408" y="138.7800369685767" fill="#4040ff" stroke-width="1" stroke="#222222"></rect></g><g class="labels"></g></svg>